<svg width="102" height="124" viewBox="0 0 102 124" fill="none" xmlns="http://www.w3.org/2000/svg">
<path fill-rule="evenodd" clip-rule="evenodd" d="M60 4L100 44V110C100 117.732 93.732 124 86 124H14C6.26801 124 0 117.732 0 110V18C0 10.268 6.26801 4 14 4H60Z" fill="#424242"/>
<mask id="mask0_177_5796" style="mask-type:alpha" maskUnits="userSpaceOnUse" x="0" y="4" width="100" height="120">
<path fill-rule="evenodd" clip-rule="evenodd" d="M60 4L100 44V110C100 117.732 93.732 124 86 124H14C6.26801 124 0 117.732 0 110V18C0 10.268 6.26801 4 14 4H60Z" fill="white"/>
</mask>
<g mask="url(#mask0_177_5796)">
<g opacity="0.4" filter="url(#filter0_d_177_5796)">
<path fill-rule="evenodd" clip-rule="evenodd" d="M100 44H74.7071C66.9751 44 60 37.0249 60 29.2929V4L100 44Z" fill="white" fill-opacity="0.4"/>
</g>
<path fill-rule="evenodd" clip-rule="evenodd" d="M20.0347 82.824C20.0347 88.7366 24.9086 93.6105 30.8212 93.6105C36.7338 93.6105 41.6077 88.7366 41.6077 82.824C41.6077 78.6692 45.0435 75.2335 49.1983 75.2335C53.3531 75.2335 56.7888 78.6692 56.7888 82.824C56.7888 86.9788 53.3531 90.4145 49.1983 90.4145C47.6802 90.4145 46.1621 89.9351 44.8837 89.0562C44.1646 88.5768 43.1258 88.7366 42.6464 89.4557C42.167 90.1748 42.3268 91.2135 43.0459 91.6929C44.8038 92.9713 46.9611 93.6105 49.1983 93.6105C55.1109 93.6105 59.9848 88.7366 59.9848 82.824C59.9848 76.8315 55.1109 72.0375 49.1983 72.0375C43.2857 72.0375 38.4117 76.9114 38.4117 82.824C38.4117 86.9788 34.976 90.4145 30.8212 90.4145C26.6664 90.4145 23.2307 86.9788 23.2307 82.824C23.2307 78.6692 26.6664 75.2335 30.8212 75.2335C32.2594 75.2335 33.6976 75.633 34.8961 76.432C35.6951 76.9114 36.6539 76.6717 37.1333 75.9526C37.6127 75.1536 37.373 74.1948 36.6539 73.7154C34.8961 72.5968 32.8986 72.0375 30.8212 72.0375C24.9086 72.0375 20.0347 76.9114 20.0347 82.824Z" fill="white"/>
</g>
<defs>
<filter id="filter0_d_177_5796" x="58" y="0" width="44" height="44" filterUnits="userSpaceOnUse" color-interpolation-filters="sRGB">
<feFlood flood-opacity="0" result="BackgroundImageFix"/>
<feColorMatrix in="SourceAlpha" type="matrix" values="0 0 0 0 0 0 0 0 0 0 0 0 0 0 0 0 0 0 127 0" result="hardAlpha"/>
<feOffset dy="-2"/>
<feGaussianBlur stdDeviation="1"/>
<feColorMatrix type="matrix" values="0 0 0 0 0 0 0 0 0 0 0 0 0 0 0 0 0 0 0.0909637 0"/>
<feBlend mode="normal" in2="BackgroundImageFix" result="effect1_dropShadow_177_5796"/>
<feBlend mode="normal" in="SourceGraphic" in2="effect1_dropShadow_177_5796" result="shape"/>
</filter>
</defs>
</svg>
