<svg width="102" height="124" viewBox="0 0 102 124" fill="none" xmlns="http://www.w3.org/2000/svg">
<g clip-path="url(#clip0_177_5769)">
<path fill-rule="evenodd" clip-rule="evenodd" d="M60 4L100 44V110C100 117.732 93.732 124 86 124H14C6.26801 124 0 117.732 0 110V18C0 10.268 6.26801 4 14 4H60Z" fill="url(#paint0_linear_177_5769)"/>
<g filter="url(#filter0_d_177_5769)">
<path fill-rule="evenodd" clip-rule="evenodd" d="M100 44H74.7071C66.9751 44 60 37.0249 60 29.2929V4L100 44Z" fill="white" fill-opacity="0.4"/>
</g>
<path opacity="0.4" d="M38.5538 56.901C28.3113 56.901 20.0132 65.2036 20.0132 75.4416C20.0132 85.6796 28.3157 93.9822 38.5538 93.9822C48.7918 93.9822 57.0988 85.6796 57.0988 75.4372H38.5538V56.901Z" fill="white"/>
<path d="M41.4414 54.0089V72.5539H59.982C59.9864 62.3115 51.6839 54.0089 41.4414 54.0089Z" fill="white"/>
</g>
<defs>
<filter id="filter0_d_177_5769" x="58" y="0" width="44" height="44" filterUnits="userSpaceOnUse" color-interpolation-filters="sRGB">
<feFlood flood-opacity="0" result="BackgroundImageFix"/>
<feColorMatrix in="SourceAlpha" type="matrix" values="0 0 0 0 0 0 0 0 0 0 0 0 0 0 0 0 0 0 127 0" result="hardAlpha"/>
<feOffset dy="-2"/>
<feGaussianBlur stdDeviation="1"/>
<feColorMatrix type="matrix" values="0 0 0 0 0 0 0 0 0 0 0 0 0 0 0 0 0 0 0.0909637 0"/>
<feBlend mode="normal" in2="BackgroundImageFix" result="effect1_dropShadow_177_5769"/>
<feBlend mode="normal" in="SourceGraphic" in2="effect1_dropShadow_177_5769" result="shape"/>
</filter>
<linearGradient id="paint0_linear_177_5769" x1="0" y1="4" x2="0" y2="124" gradientUnits="userSpaceOnUse">
<stop stop-color="#FD7541"/>
<stop offset="1" stop-color="#EB5F29"/>
</linearGradient>
<clipPath id="clip0_177_5769">
<rect width="102" height="124" fill="white"/>
</clipPath>
</defs>
</svg>
