<svg width="102" height="124" viewBox="0 0 102 124" fill="none" xmlns="http://www.w3.org/2000/svg">
<g clip-path="url(#clip0_177_5781)">
<path fill-rule="evenodd" clip-rule="evenodd" d="M60 4L100 44V110C100 117.732 93.732 124 86 124H14C6.26801 124 0 117.732 0 110V18C0 10.268 6.26801 4 14 4H60Z" fill="url(#paint0_linear_177_5781)"/>
<g filter="url(#filter0_d_177_5781)">
<path fill-rule="evenodd" clip-rule="evenodd" d="M100 44H74.7071C66.9751 44 60 37.0249 60 29.2929V4L100 44Z" fill="white" fill-opacity="0.4"/>
</g>
<path fill-rule="evenodd" clip-rule="evenodd" d="M59.963 54.0481V54.0159H20.0132V57.3451H20.0249V63.8886H20.0132V67.2177H20.0249V77.2766H20.0158V80.6057H20.0249V90.6646H20.018V93.9937H20.0249V93.9978H23.3541V93.9937H33.3874V93.9978H36.7166V93.9937H43.306V93.9978H46.6352V93.9937H56.6456V93.9978H59.9747V54.0481H59.963ZM56.6456 90.6646V80.6057H46.6352V90.6646H56.6456ZM43.306 90.6646V80.6057H36.7166V90.6646H43.306ZM33.3874 90.6646V80.6057H23.3541V90.6646H33.3874ZM23.3541 77.2766H33.3874V67.2177H23.3541V77.2766ZM23.3541 63.8886H56.6456V57.3451H23.3541V63.8886ZM56.6456 67.2177H46.6352V77.2766H56.6456V67.2177ZM43.306 77.2766V67.2177H36.7166V77.2766H43.306Z" fill="white"/>
</g>
<defs>
<filter id="filter0_d_177_5781" x="58" y="0" width="44" height="44" filterUnits="userSpaceOnUse" color-interpolation-filters="sRGB">
<feFlood flood-opacity="0" result="BackgroundImageFix"/>
<feColorMatrix in="SourceAlpha" type="matrix" values="0 0 0 0 0 0 0 0 0 0 0 0 0 0 0 0 0 0 127 0" result="hardAlpha"/>
<feOffset dy="-2"/>
<feGaussianBlur stdDeviation="1"/>
<feColorMatrix type="matrix" values="0 0 0 0 0 0 0 0 0 0 0 0 0 0 0 0 0 0 0.0909637 0"/>
<feBlend mode="normal" in2="BackgroundImageFix" result="effect1_dropShadow_177_5781"/>
<feBlend mode="normal" in="SourceGraphic" in2="effect1_dropShadow_177_5781" result="shape"/>
</filter>
<linearGradient id="paint0_linear_177_5781" x1="0" y1="4" x2="0" y2="124" gradientUnits="userSpaceOnUse">
<stop stop-color="#1ABF74"/>
<stop offset="1" stop-color="#009F57"/>
</linearGradient>
<clipPath id="clip0_177_5781">
<rect width="102" height="124" fill="white"/>
</clipPath>
</defs>
</svg>
