<svg width="100" height="120" viewBox="0 0 100 120" fill="none" xmlns="http://www.w3.org/2000/svg">
<g clip-path="url(#clip0_177_5749)">
<path fill-rule="evenodd" clip-rule="evenodd" d="M60 0L100 40V106C100 113.732 93.732 120 86 120H14C6.26801 120 0 113.732 0 106V14C0 6.26801 6.26801 0 14 0H60Z" fill="url(#paint0_linear_177_5749)"/>
<mask id="mask0_177_5749" style="mask-type:alpha" maskUnits="userSpaceOnUse" x="0" y="0" width="100" height="120">
<path fill-rule="evenodd" clip-rule="evenodd" d="M60 0L100 40V106C100 113.732 93.732 120 86 120H14C6.26801 120 0 113.732 0 106V14C0 6.26801 6.26801 0 14 0H60Z" fill="white"/>
</mask>
<g mask="url(#mask0_177_5749)">
<g filter="url(#filter0_d_177_5749)">
<path fill-rule="evenodd" clip-rule="evenodd" d="M100 40H74.7071C66.9751 40 60 33.0249 60 25.2929V0L100 40Z" fill="white" fill-opacity="0.4"/>
</g>
<path fill-rule="evenodd" clip-rule="evenodd" d="M46.9438 51.3333H50.6772C52.9438 51.3333 54.6772 53.0667 54.5438 55.3333V83.3333C54.5438 84.6667 54.0105 85.7333 52.9438 86.5333C52.8105 86.6667 52.6772 86.6667 52.5438 86.6667C52.4772 86.6667 52.4438 86.6333 52.4105 86.6C52.3772 86.5667 52.3438 86.5333 52.2772 86.5333C52.0105 86.5333 51.8772 86.2667 51.8772 86V80C51.8772 77.8667 50.5438 75.8667 48.4105 75.0667L47.7438 74.6667C47.7438 74.6667 47.6105 74.5333 47.4772 74.5333C47.4457 74.5019 47.4068 74.4704 47.3657 74.4371C47.2328 74.3296 47.0772 74.2037 47.0772 74L46.6772 71.3333V54C46.6772 53.4667 46.5438 52.8 46.2772 52.2667C46.2772 52 46.2772 51.7333 46.4105 51.6C46.5438 51.4667 46.6772 51.3333 46.9438 51.3333ZM32.1438 60L33.8772 54H34.1438L35.8772 60C36.0105 60.5333 35.8772 61.2 35.4772 61.6C34.9438 62.1333 32.9438 62.1333 32.4105 61.6C32.0105 61.2 31.8772 60.5333 32.1438 60Z" fill="white"/>
<path d="M32.6772 53.2C32.8106 52.8 33.0772 52.6667 33.3439 52.6667H34.6772C34.9439 52.6667 35.2106 52.8 35.3439 53.2L36.1439 56.2667L37.2106 54L35.6106 50.2667V50H32.0106V50.2667L30.6772 54L31.7439 56.5333L32.6772 53.2Z" fill="white"/>
<path fill-rule="evenodd" clip-rule="evenodd" d="M47.0771 75.8667L48.0105 76.2667C49.6105 76.8 50.6771 78.2667 50.6771 80V86C50.6771 88.2667 48.9438 90 46.6771 90H24.0105C21.7438 90 20.0105 88.2667 20.0105 86V54C20.0105 51.7333 21.7438 50 24.0105 50H30.6771L29.3438 53.7333V54.2667L30.6771 57.6C30.8105 57.8667 31.0771 58 31.3438 58L30.8105 59.6C30.4105 60.5333 30.6771 61.7333 31.4771 62.5333C32.0105 63.0667 32.9438 63.3333 34.0105 63.3333C35.0771 63.3333 36.0105 63.0667 36.5438 62.5333C37.3438 61.7333 37.6105 60.5333 37.2105 59.6L36.6771 57.8667C36.8105 57.8667 36.9438 57.7333 36.9438 57.6L38.6771 54.2667C38.8105 54.1333 38.8105 53.8667 38.6771 53.7333L36.9438 50H41.2105C43.4771 50 45.2105 51.7333 45.2105 54V73.3333C45.2105 74.5333 46.0105 75.4667 47.0771 75.8667ZM31.3438 84.6667H32.6771C33.0771 84.6667 33.3438 84.4 33.3438 84C33.3438 83.6 33.0771 83.3333 32.6771 83.3333H31.3438C30.9438 83.3333 30.6771 83.6 30.6771 84C30.6771 84.4 30.9438 84.6667 31.3438 84.6667ZM32.6771 82H31.3438C30.9438 82 30.6771 81.7333 30.6771 81.3333C30.6771 80.9333 30.9438 80.6667 31.3438 80.6667H32.6771C33.0771 80.6667 33.3438 80.9333 33.3438 81.3333C33.3438 81.7333 33.0771 82 32.6771 82ZM31.3438 79.3333H32.6771C33.0771 79.3333 33.3438 79.0667 33.3438 78.6667C33.3438 78.2667 33.0771 78 32.6771 78H31.3438C30.9438 78 30.6771 78.2667 30.6771 78.6667C30.6771 79.0667 30.9438 79.3333 31.3438 79.3333ZM32.6771 76.6667H31.3438C30.9438 76.6667 30.6771 76.4 30.6771 76C30.6771 75.6 30.9438 75.3333 31.3438 75.3333H32.6771C33.0771 75.3333 33.3438 75.6 33.3438 76C33.3438 76.4 33.0771 76.6667 32.6771 76.6667ZM31.3438 74H32.6771C33.0771 74 33.3438 73.7333 33.3438 73.3333C33.3438 72.9333 33.0771 72.6667 32.6771 72.6667H31.3438C30.9438 72.6667 30.6771 72.9333 30.6771 73.3333C30.6771 73.7333 30.9438 74 31.3438 74ZM32.6771 71.3333H31.3438C30.9438 71.3333 30.6771 71.0667 30.6771 70.6667C30.6771 70.2667 30.9438 70 31.3438 70H32.6771C33.0771 70 33.3438 70.2667 33.3438 70.6667C33.3438 71.0667 33.0771 71.3333 32.6771 71.3333ZM31.3438 68.6667H32.6771C33.0771 68.6667 33.3438 68.4 33.3438 68C33.3438 67.6 33.0771 67.3333 32.6771 67.3333H31.3438C30.9438 67.3333 30.6771 67.6 30.6771 68C30.6771 68.4 30.9438 68.6667 31.3438 68.6667ZM32.6771 66H31.3438C30.9438 66 30.6771 65.7333 30.6771 65.3333C30.6771 64.9333 30.9438 64.6667 31.3438 64.6667H32.6771C33.0771 64.6667 33.3438 64.9333 33.3438 65.3333C33.3438 65.7333 33.0771 66 32.6771 66ZM35.3438 83.3333H36.6771C37.0771 83.3333 37.3438 83.0667 37.3438 82.6667C37.3438 82.2667 37.0771 82 36.6771 82H35.3438C34.9438 82 34.6771 82.2667 34.6771 82.6667C34.6771 83.0667 34.9438 83.3333 35.3438 83.3333ZM36.6771 80.6667H35.3438C34.9438 80.6667 34.6771 80.4 34.6771 80C34.6771 79.6 34.9438 79.3333 35.3438 79.3333H36.6771C37.0771 79.3333 37.3438 79.6 37.3438 80C37.3438 80.4 37.0771 80.6667 36.6771 80.6667ZM35.3438 78H36.6771C37.0771 78 37.3438 77.7333 37.3438 77.3333C37.3438 76.9333 37.0771 76.6667 36.6771 76.6667H35.3438C34.9438 76.6667 34.6771 76.9333 34.6771 77.3333C34.6771 77.7333 34.9438 78 35.3438 78ZM36.6771 75.3333H35.3438C34.9438 75.3333 34.6771 75.0667 34.6771 74.6667C34.6771 74.2667 34.9438 74 35.3438 74H36.6771C37.0771 74 37.3438 74.2667 37.3438 74.6667C37.3438 75.0667 37.0771 75.3333 36.6771 75.3333ZM35.3438 72.6667H36.6771C37.0771 72.6667 37.3438 72.4 37.3438 72C37.3438 71.6 37.0771 71.3333 36.6771 71.3333H35.3438C34.9438 71.3333 34.6771 71.6 34.6771 72C34.6771 72.4 34.9438 72.6667 35.3438 72.6667ZM36.6771 70H35.3438C34.9438 70 34.6771 69.7333 34.6771 69.3333C34.6771 68.9333 34.9438 68.6667 35.3438 68.6667H36.6771C37.0771 68.6667 37.3438 68.9333 37.3438 69.3333C37.3438 69.7333 37.0771 70 36.6771 70ZM35.3438 67.3333H36.6771C37.0771 67.3333 37.3438 67.0667 37.3438 66.6667C37.3438 66.2667 37.0771 66 36.6771 66H35.3438C34.9438 66 34.6771 66.2667 34.6771 66.6667C34.6771 67.0667 34.9438 67.3333 35.3438 67.3333Z" fill="white"/>
</g>
</g>
<defs>
<filter id="filter0_d_177_5749" x="58" y="-4" width="44" height="44" filterUnits="userSpaceOnUse" color-interpolation-filters="sRGB">
<feFlood flood-opacity="0" result="BackgroundImageFix"/>
<feColorMatrix in="SourceAlpha" type="matrix" values="0 0 0 0 0 0 0 0 0 0 0 0 0 0 0 0 0 0 127 0" result="hardAlpha"/>
<feOffset dy="-2"/>
<feGaussianBlur stdDeviation="1"/>
<feColorMatrix type="matrix" values="0 0 0 0 0 0 0 0 0 0 0 0 0 0 0 0 0 0 0.0909637 0"/>
<feBlend mode="normal" in2="BackgroundImageFix" result="effect1_dropShadow_177_5749"/>
<feBlend mode="normal" in="SourceGraphic" in2="effect1_dropShadow_177_5749" result="shape"/>
</filter>
<linearGradient id="paint0_linear_177_5749" x1="0" y1="0" x2="0" y2="120" gradientUnits="userSpaceOnUse">
<stop stop-color="#D0D8E1"/>
<stop offset="1" stop-color="#BAC3CD"/>
</linearGradient>
<clipPath id="clip0_177_5749">
<rect width="100" height="120" fill="white"/>
</clipPath>
</defs>
</svg>
