<svg width="100" height="120" viewBox="0 0 100 120" fill="none" xmlns="http://www.w3.org/2000/svg">
<g clip-path="url(#clip0_535_2076)">
<path fill-rule="evenodd" clip-rule="evenodd" d="M60 0L100 40V106C100 113.732 93.732 120 86 120H14C6.26801 120 0 113.732 0 106V14C0 6.26801 6.26801 0 14 0H60Z" fill="url(#paint0_linear_535_2076)"/>
<mask id="mask0_535_2076" style="mask-type:alpha" maskUnits="userSpaceOnUse" x="0" y="0" width="100" height="120">
<path fill-rule="evenodd" clip-rule="evenodd" d="M60 0L100 40V106C100 113.732 93.732 120 86 120H14C6.26801 120 0 113.732 0 106V14C0 6.26801 6.26801 0 14 0H60Z" fill="white"/>
</mask>
<g mask="url(#mask0_535_2076)">
<g filter="url(#filter0_d_535_2076)">
<path fill-rule="evenodd" clip-rule="evenodd" d="M100 40H74.7071C66.9751 40 60 33.0249 60 25.2929V0L100 40Z" fill="#EDCC24"/>
</g>
<path fill-rule="evenodd" clip-rule="evenodd" d="M46.9436 51.3333H50.677C52.9436 51.3333 54.677 53.0667 54.5436 55.3333V83.3333C54.5436 84.6667 54.0103 85.7333 52.9436 86.5333C52.8103 86.6667 52.677 86.6667 52.5436 86.6667C52.477 86.6667 52.4436 86.6333 52.4103 86.6C52.377 86.5667 52.3436 86.5333 52.277 86.5333C52.0103 86.5333 51.877 86.2667 51.877 86V80C51.877 77.8667 50.5436 75.8667 48.4103 75.0667L47.7436 74.6667C47.7436 74.6667 47.6103 74.5333 47.477 74.5333C47.4455 74.5019 47.4066 74.4704 47.3655 74.4371C47.2326 74.3296 47.077 74.2037 47.077 74L46.677 71.3333V54C46.677 53.4667 46.5436 52.8 46.277 52.2667C46.277 52 46.277 51.7333 46.4103 51.6C46.5436 51.4667 46.677 51.3333 46.9436 51.3333ZM32.1436 60L33.877 54H34.1436L35.877 60C36.0103 60.5333 35.877 61.2 35.477 61.6C34.9436 62.1333 32.9436 62.1333 32.4103 61.6C32.0103 61.2 31.877 60.5333 32.1436 60Z" fill="white"/>
<path d="M32.6768 53.2C32.8102 52.8 33.0768 52.6667 33.3435 52.6667H34.6768C34.9435 52.6667 35.2102 52.8 35.3435 53.2L36.1435 56.2667L37.2102 54L35.6102 50.2667V50H32.0102V50.2667L30.6768 54L31.7435 56.5333L32.6768 53.2Z" fill="white"/>
<path fill-rule="evenodd" clip-rule="evenodd" d="M47.0769 75.8667L48.0103 76.2667C49.6103 76.8 50.6769 78.2667 50.6769 80V86C50.6769 88.2667 48.9436 90 46.6769 90H24.0103C21.7436 90 20.0103 88.2667 20.0103 86V54C20.0103 51.7333 21.7436 50 24.0103 50H30.6769L29.3436 53.7333V54.2667L30.6769 57.6C30.8103 57.8667 31.0769 58 31.3436 58L30.8103 59.6C30.4103 60.5333 30.6769 61.7333 31.4769 62.5333C32.0103 63.0667 32.9436 63.3333 34.0103 63.3333C35.0769 63.3333 36.0103 63.0667 36.5436 62.5333C37.3436 61.7333 37.6103 60.5333 37.2103 59.6L36.6769 57.8667C36.8103 57.8667 36.9436 57.7333 36.9436 57.6L38.6769 54.2667C38.8103 54.1333 38.8103 53.8667 38.6769 53.7333L36.9436 50H41.2103C43.4769 50 45.2103 51.7333 45.2103 54V73.3333C45.2103 74.5333 46.0103 75.4667 47.0769 75.8667ZM31.3436 84.6667H32.6769C33.0769 84.6667 33.3436 84.4 33.3436 84C33.3436 83.6 33.0769 83.3333 32.6769 83.3333H31.3436C30.9436 83.3333 30.6769 83.6 30.6769 84C30.6769 84.4 30.9436 84.6667 31.3436 84.6667ZM32.6769 82H31.3436C30.9436 82 30.6769 81.7333 30.6769 81.3333C30.6769 80.9333 30.9436 80.6667 31.3436 80.6667H32.6769C33.0769 80.6667 33.3436 80.9333 33.3436 81.3333C33.3436 81.7333 33.0769 82 32.6769 82ZM31.3436 79.3333H32.6769C33.0769 79.3333 33.3436 79.0667 33.3436 78.6667C33.3436 78.2667 33.0769 78 32.6769 78H31.3436C30.9436 78 30.6769 78.2667 30.6769 78.6667C30.6769 79.0667 30.9436 79.3333 31.3436 79.3333ZM32.6769 76.6667H31.3436C30.9436 76.6667 30.6769 76.4 30.6769 76C30.6769 75.6 30.9436 75.3333 31.3436 75.3333H32.6769C33.0769 75.3333 33.3436 75.6 33.3436 76C33.3436 76.4 33.0769 76.6667 32.6769 76.6667ZM31.3436 74H32.6769C33.0769 74 33.3436 73.7333 33.3436 73.3333C33.3436 72.9333 33.0769 72.6667 32.6769 72.6667H31.3436C30.9436 72.6667 30.6769 72.9333 30.6769 73.3333C30.6769 73.7333 30.9436 74 31.3436 74ZM32.6769 71.3333H31.3436C30.9436 71.3333 30.6769 71.0667 30.6769 70.6667C30.6769 70.2667 30.9436 70 31.3436 70H32.6769C33.0769 70 33.3436 70.2667 33.3436 70.6667C33.3436 71.0667 33.0769 71.3333 32.6769 71.3333ZM31.3436 68.6667H32.6769C33.0769 68.6667 33.3436 68.4 33.3436 68C33.3436 67.6 33.0769 67.3333 32.6769 67.3333H31.3436C30.9436 67.3333 30.6769 67.6 30.6769 68C30.6769 68.4 30.9436 68.6667 31.3436 68.6667ZM32.6769 66H31.3436C30.9436 66 30.6769 65.7333 30.6769 65.3333C30.6769 64.9333 30.9436 64.6667 31.3436 64.6667H32.6769C33.0769 64.6667 33.3436 64.9333 33.3436 65.3333C33.3436 65.7333 33.0769 66 32.6769 66ZM35.3436 83.3333H36.6769C37.0769 83.3333 37.3436 83.0667 37.3436 82.6667C37.3436 82.2667 37.0769 82 36.6769 82H35.3436C34.9436 82 34.6769 82.2667 34.6769 82.6667C34.6769 83.0667 34.9436 83.3333 35.3436 83.3333ZM36.6769 80.6667H35.3436C34.9436 80.6667 34.6769 80.4 34.6769 80C34.6769 79.6 34.9436 79.3333 35.3436 79.3333H36.6769C37.0769 79.3333 37.3436 79.6 37.3436 80C37.3436 80.4 37.0769 80.6667 36.6769 80.6667ZM35.3436 78H36.6769C37.0769 78 37.3436 77.7333 37.3436 77.3333C37.3436 76.9333 37.0769 76.6667 36.6769 76.6667H35.3436C34.9436 76.6667 34.6769 76.9333 34.6769 77.3333C34.6769 77.7333 34.9436 78 35.3436 78ZM36.6769 75.3333H35.3436C34.9436 75.3333 34.6769 75.0667 34.6769 74.6667C34.6769 74.2667 34.9436 74 35.3436 74H36.6769C37.0769 74 37.3436 74.2667 37.3436 74.6667C37.3436 75.0667 37.0769 75.3333 36.6769 75.3333ZM35.3436 72.6667H36.6769C37.0769 72.6667 37.3436 72.4 37.3436 72C37.3436 71.6 37.0769 71.3333 36.6769 71.3333H35.3436C34.9436 71.3333 34.6769 71.6 34.6769 72C34.6769 72.4 34.9436 72.6667 35.3436 72.6667ZM36.6769 70H35.3436C34.9436 70 34.6769 69.7333 34.6769 69.3333C34.6769 68.9333 34.9436 68.6667 35.3436 68.6667H36.6769C37.0769 68.6667 37.3436 68.9333 37.3436 69.3333C37.3436 69.7333 37.0769 70 36.6769 70ZM35.3436 67.3333H36.6769C37.0769 67.3333 37.3436 67.0667 37.3436 66.6667C37.3436 66.2667 37.0769 66 36.6769 66H35.3436C34.9436 66 34.6769 66.2667 34.6769 66.6667C34.6769 67.0667 34.9436 67.3333 35.3436 67.3333Z" fill="white"/>
</g>
</g>
<defs>
<filter id="filter0_d_535_2076" x="58" y="-4" width="44" height="44" filterUnits="userSpaceOnUse" color-interpolation-filters="sRGB">
<feFlood flood-opacity="0" result="BackgroundImageFix"/>
<feColorMatrix in="SourceAlpha" type="matrix" values="0 0 0 0 0 0 0 0 0 0 0 0 0 0 0 0 0 0 127 0" result="hardAlpha"/>
<feOffset dy="-2"/>
<feGaussianBlur stdDeviation="1"/>
<feColorMatrix type="matrix" values="0 0 0 0 0 0 0 0 0 0 0 0 0 0 0 0 0 0 0.0909637 0"/>
<feBlend mode="normal" in2="BackgroundImageFix" result="effect1_dropShadow_535_2076"/>
<feBlend mode="normal" in="SourceGraphic" in2="effect1_dropShadow_535_2076" result="shape"/>
</filter>
<linearGradient id="paint0_linear_535_2076" x1="0" y1="0" x2="0" y2="120" gradientUnits="userSpaceOnUse">
<stop stop-color="#FFE897"/>
<stop offset="1" stop-color="#EBC813"/>
</linearGradient>
<clipPath id="clip0_535_2076">
<rect width="100" height="120" fill="white"/>
</clipPath>
</defs>
</svg>
