<svg width="20" height="20" viewBox="0 0 20 20" fill="none" xmlns="http://www.w3.org/2000/svg">
<g clip-path="url(#clip0_130_2226)">
<path d="M0 4C0 1.79086 1.79086 0 4 0H16C18.2091 0 20 1.79086 20 4V16C20 18.2091 18.2091 20 16 20H4C1.79086 20 0 18.2091 0 16V4Z" fill="#27BF5F"/>
<rect width="10" height="20" fill="#238B49"/>
<path d="M15.9385 4.99542L13 5L4.54713 15.003L7.5 15.003L9 15L10 13.7521L8.55481 13.7521L9.60963 12.5011L11.7193 9.99922L15.9385 4.99542Z" fill="white"/>
<g filter="url(#filter0_d_130_2226)">
<path d="M13 14.9984L15.9385 15.003L7.5 4.99543L4.54713 4.99543L13 14.9984Z" fill="white"/>
</g>
</g>
<defs>
<filter id="filter0_d_130_2226" x="0.547119" y="4.99542" width="19.3914" height="18.0076" filterUnits="userSpaceOnUse" color-interpolation-filters="sRGB">
<feFlood flood-opacity="0" result="BackgroundImageFix"/>
<feColorMatrix in="SourceAlpha" type="matrix" values="0 0 0 0 0 0 0 0 0 0 0 0 0 0 0 0 0 0 127 0" result="hardAlpha"/>
<feOffset dy="4"/>
<feGaussianBlur stdDeviation="2"/>
<feComposite in2="hardAlpha" operator="out"/>
<feColorMatrix type="matrix" values="0 0 0 0 0 0 0 0 0 0 0 0 0 0 0 0 0 0 0.25 0"/>
<feBlend mode="normal" in2="BackgroundImageFix" result="effect1_dropShadow_130_2226"/>
<feBlend mode="normal" in="SourceGraphic" in2="effect1_dropShadow_130_2226" result="shape"/>
</filter>
<clipPath id="clip0_130_2226">
<path d="M0 4C0 1.79086 1.79086 0 4 0H16C18.2091 0 20 1.79086 20 4V16C20 18.2091 18.2091 20 16 20H4C1.79086 20 0 18.2091 0 16V4Z" fill="white"/>
</clipPath>
</defs>
</svg>
